<?xml version="1.0" encoding="utf-8"?>
<svg height="344px" version="1.1" viewBox="0 0 85 344" width="85px"
    xmlns="http://www.w3.org/2000/svg">
    <desc>Created with Lunacy</desc>
    <g id="Group">
        <path
            d="M42.4098 273.115C55.5475 273.115 66.4835 263.049 67.5899 249.957L84.6705 45.9588C85.6648 34.1274 81.6532 22.4314 73.6224 13.6959C65.6013 4.97151 54.2741 0 42.4098 0C30.5455 0 19.2183 4.97151 11.1966 13.6959C3.16433 22.4314 -0.845141 34.1274 0.149161 45.9588L17.2297 249.957C18.3362 263.049 29.2721 273.115 42.4098 273.115L42.4098 273.115Z"
            fill="#FC4850" id="Shape" stroke="none" />
        <path
            d="M27.5264 0C12.3215 0 0 12.3208 0 27.5264C0 42.7306 12.3215 55.0514 27.5264 55.0514C42.7312 55.0514 55.0527 42.7305 55.0527 27.5264C55.0527 12.3208 42.7312 0 27.5264 0L27.5264 0Z"
            fill="#FC4850" id="Shape" stroke="none" transform="translate(14.8835 288.1291)" />
    </g>
</svg>